<?xml version="1.0" encoding="UTF-8"?>
<svg width="19px" height="19px" viewBox="0 0 19 19" version="1.1" xmlns="http://www.w3.org/2000/svg" xmlns:xlink="http://www.w3.org/1999/xlink">
    <!-- Generator: Sketch 60.1 (88133) - https://sketch.com -->
    <title>restaurant-dark</title>
    <desc>Created with Sketch.</desc>
    <g id="Page-1" stroke="none" stroke-width="1" fill="none" fill-rule="evenodd">
        <g id="icons" transform="translate(-449.000000, -89.000000)" fill="#000000" fill-rule="nonzero">
            <g transform="translate(426.000000, 60.000000)" id="restaurant-dark">
                <g transform="translate(23.000000, 29.000000)">
                    <path d="M18.0234648,15.8303698 L10.6845829,8.52963418 L2.1103387,0 L1.44025654,0 L1.30343272,0.345861829 C0.942309939,1.25875378 0.788013022,2.19244617 0.857283967,3.04588233 C0.936241878,4.01870282 1.30774616,4.86093874 1.93169642,5.48164272 L8.62520707,12.1403284 L9.50807348,11.2620554 L15.6962169,18.1455821 C16.3117962,18.7579587 17.3713309,18.7943231 18.0234648,18.1455821 C18.665144,17.5072414 18.665144,16.4686741 18.0234648,15.8303698 Z" id="Path"></path>
                    <path d="M5.38178936,11.0018997 L0.452472459,15.9638415 C-0.150824153,16.571131 -0.150824153,17.5593259 0.452472459,18.1666155 C1.02559049,18.7435267 2.01704963,18.7944571 2.64076318,18.1666155 L7.57011446,13.2046391 L5.38178936,11.0018997 Z" id="Path"></path>
                    <path d="M17.7518978,3.02969409 L14.8661991,5.93311525 L14.1133727,5.17569172 L16.9990714,2.27223488 L16.2462804,1.51481136 L13.3606172,4.41823251 L12.6078262,3.66080898 L15.4935249,0.757387833 L14.7407694,0 L10.9768146,3.78711762 C10.51635,4.25041584 10.241405,4.86557708 10.2025275,5.51935542 C10.1927017,5.68499498 10.1553849,5.84792205 10.0934859,6.00289015 L12.538549,8.46299975 C12.6925693,8.40064847 12.8545353,8.36313777 13.0191263,8.35325151 C13.668906,8.3142418 14.2803048,8.03753345 14.7407694,7.57423524 L18.5047242,3.78715331 L17.7518978,3.02969409 Z" id="Path"></path>
                </g>
            </g>
        </g>
    </g>
</svg>