<?xml version="1.0" encoding="UTF-8"?>
<svg width="19px" height="19px" viewBox="0 0 19 19" version="1.1" xmlns="http://www.w3.org/2000/svg" xmlns:xlink="http://www.w3.org/1999/xlink">
    <!-- Generator: Sketch 60.1 (88133) - https://sketch.com -->
    <title>default-dark</title>
    <desc>Created with Sketch.</desc>
    <g id="Page-1" stroke="none" stroke-width="1" fill="none" fill-rule="evenodd">
        <g id="icons" transform="translate(-529.000000, -88.000000)" fill="#000000" fill-rule="nonzero">
            <g transform="translate(426.000000, 60.000000)" id="default-dark">
                <g transform="translate(103.000000, 28.000000)">
                    <path d="M17.2847496,0 L11.0372498,0 C10.4627227,0 9.99599977,0.560692287 9.99599977,1.24949997 C9.99599977,1.93830766 10.4627227,2.49899994 11.0372498,2.49899994 L17.2847496,2.49899994 C17.8592766,2.49899994 18.3259996,1.93830766 18.3259996,1.24949997 C18.3259996,0.560692287 17.8592766,0 17.2847496,0 Z" id="Path"></path>
                    <path d="M0.832999981,11.6619997 C1.39345412,13.6670122 2.91989953,15.2936205 4.92327106,15.8747213 L4.92327106,17.7706663 C4.92327106,18.0776175 5.16565402,18.3259996 5.46519152,18.3259996 L12.040493,18.3259996 C12.3400305,18.3259996 12.5824135,18.0776175 12.5824135,17.7706663 L12.5824135,16.1947043 C12.5824135,15.3839547 13.0873027,14.6669824 13.837718,14.4099371 C15.0033889,14.0117261 15.7901491,12.9133508 15.8269996,11.6619997 L0.832999981,11.6619997 L0.832999981,11.6619997 Z" id="Path"></path>
                    <path d="M10.8289998,3.33199992 L10.8289998,10.8289998 L15.8269996,10.8289998 C16.745669,10.8289998 17.4929996,10.1151581 17.4929996,9.23765545 L17.4929996,3.33199992 L10.8289998,3.33199992 Z" id="Path"></path>
                    <path d="M1.10249998,8.32999981 C0.494177239,8.32999981 0,8.8906921 0,9.57949978 C0,10.2683075 0.494177239,10.8289998 1.10249998,10.8289998 L9.99599977,10.8289998 L9.99599977,8.32999981 L1.10249998,8.32999981 Z" id="Path"></path>
                </g>
            </g>
        </g>
    </g>
</svg>