<?xml version="1.0" encoding="UTF-8"?>
<svg width="10px" height="19px" viewBox="0 0 10 19" version="1.1" xmlns="http://www.w3.org/2000/svg" xmlns:xlink="http://www.w3.org/1999/xlink">
    <!-- Generator: Sketch 60.1 (88133) - https://sketch.com -->
    <title>paid-dark</title>
    <desc>Created with Sketch.</desc>
    <g id="Page-1" stroke="none" stroke-width="1" fill="none" fill-rule="evenodd">
        <g id="icons" transform="translate(-651.000000, -86.000000)" fill="#000000" fill-rule="nonzero">
            <g id="icons_naked" transform="translate(426.000000, 60.000000)">
                <g id="paid-dark" transform="translate(225.000000, 26.000000)">
                    <path d="M5.38310413,8.33888889 C3.15324165,7.71611111 2.43614931,7.07222222 2.43614931,6.06944444 C2.43614931,4.91888889 3.42829077,4.11666667 5.08840864,4.11666667 C6.83693517,4.11666667 7.48526523,5.01388889 7.54420432,6.33333333 L9.7151277,6.33333333 C9.64636542,4.51777778 8.61493124,2.85 6.56188605,2.31166667 L6.56188605,0 L3.61493124,0 L3.61493124,2.28 C1.70923379,2.72333333 0.176817289,4.05333333 0.176817289,6.09055556 C0.176817289,8.52888889 2.05304519,9.74277778 4.79371316,10.45 C7.24950884,11.0833333 7.74066798,12.0122222 7.74066798,12.9938889 C7.74066798,13.7222222 7.25933202,14.8833333 5.08840864,14.8833333 C3.06483301,14.8833333 2.26915521,13.9122222 2.1611002,12.6666667 L0,12.6666667 C0.117878193,14.9783333 1.72888016,16.2766667 3.61493124,16.7094444 L3.61493124,19 L6.56188605,19 L6.56188605,16.7305556 C8.47740668,16.34 10,15.1472222 10,12.9833333 C10,9.98555556 7.6129666,8.96166667 5.38310413,8.33888889 Z" id="Path"></path>
                </g>
            </g>
        </g>
    </g>
</svg>