<?xml version="1.0" encoding="UTF-8"?>
<svg width="31px" height="31px" viewBox="0 0 31 31" version="1.1" xmlns="http://www.w3.org/2000/svg" xmlns:xlink="http://www.w3.org/1999/xlink">
    <!-- Generator: Sketch 59.1 (86144) - https://sketch.com -->
    <title>disabled_icon-dark</title>
    <desc>Created with Sketch.</desc>
    <g id="Page-1" stroke="none" stroke-width="1" fill="none" fill-rule="evenodd">
        <g id="Artboard" transform="translate(-171.000000, -70.000000)">
            <g id="disabled_icon-dark" transform="translate(171.000000, 70.000000)">
                <rect id="Rectangle" fill="#000000" x="-1.49213975e-13" y="1.77635684e-15" width="30.7507634" height="30.9399989" rx="1.81999993"></rect>
                <g id="disabled" transform="translate(7.000000, 5.000000)" fill="#FFFFFF" fill-rule="nonzero">
                    <path d="M8.00026812,4 C9.1036083,4 10,3.10456566 10,2.00002063 C10,0.895145571 9.1036083,0 8.00026812,0 C6.89564921,0 6,0.895145571 6,2.00002063 C6,3.10456566 6.89564921,4 8.00026812,4 Z" id="XMLID_31_"></path>
                    <path d="M10.6139671,16.0802025 C10.0731796,17.9097633 8.34213914,19.2533854 6.29262047,19.2533854 C3.81069849,19.2533854 1.79232664,17.2866852 1.79232664,14.8691389 C1.79232664,13.0795787 2.90034701,11.5393071 4.48161415,10.858682 L4.48161415,9 C1.89206358,9.75997205 0,12.1021797 0,14.8691389 C0,18.2495237 2.82281581,21 6.2925785,21 C8.82117871,21 11.0006576,19.5357215 12,17.434745 L11.2895002,16.0745991 C11.0900683,16.0761942 10.8590278,16.0782392 10.6139671,16.0802025 Z" id="XMLID_30_"></path>
                    <path d="M16.8692496,18.2430157 L14.1426054,12.8228808 C13.9390907,12.4173216 13.5276945,12.1620482 13.0776695,12.1620482 L9.58542017,12.1620482 L9.58542017,11.3568734 L12.5909892,11.3568734 C12.8911178,11.3568734 13.1433803,11.1982668 13.3063349,10.9697815 C13.4122281,10.8209392 13.4875541,10.6480258 13.4875541,10.4503194 C13.4875541,9.94983401 13.0866129,9.54389277 12.5909892,9.54389277 L10.7802663,9.54389277 L9.58542017,9.54389277 L9.58542017,6.81293816 C9.58542017,6.06184922 9.03462453,5 7.793004,5 C6.80276429,5 6,5.81179757 6,6.81293816 L6,12.7297801 C6,13.7511286 6.8188876,14.5791009 7.8290715,14.5791009 L11.1152448,14.5791009 L12.3448148,14.5791009 L14.7391258,19.3388702 C14.9495265,19.7580994 15.3694043,20 15.8051534,20 C15.9878002,20 16.1730083,19.9578011 16.3460819,19.8682241 C16.9353384,19.5660394 17.1693783,18.8379603 16.8692496,18.2430157 Z" id="XMLID_29_"></path>
                </g>
            </g>
        </g>
    </g>
</svg>