<?xml version="1.0" encoding="UTF-8"?>
<svg width="31px" height="31px" viewBox="0 0 31 31" version="1.1" xmlns="http://www.w3.org/2000/svg" xmlns:xlink="http://www.w3.org/1999/xlink">
    <!-- Generator: Sketch 59.1 (86144) - https://sketch.com -->
    <title>key_icon-dark</title>
    <desc>Created with Sketch.</desc>
    <g id="Page-1" stroke="none" stroke-width="1" fill="none" fill-rule="evenodd">
        <g id="Artboard" transform="translate(-245.000000, -70.000000)">
            <g id="key_icon-dark" transform="translate(245.000000, 70.000000)">
                <rect id="Rectangle" fill="#000000" x="0" y="0" width="31" height="31" rx="2.00990786"></rect>
                <g id="key" transform="translate(7.000000, 7.000000)" fill="#FFFFFF" fill-rule="nonzero">
                    <path d="M15.3978797,1.60209902 C13.2617193,-0.534055142 9.78610896,-0.534021939 7.64994854,1.60213222 C6.19083436,3.06124213 5.68402087,5.21150761 6.31581116,7.16235531 L0.145928019,13.3322536 C0.0525274463,13.4256539 0,13.5520913 0,13.6844056 L0,16.5019536 C0,16.7772405 0.222760201,17 0.498047848,17 L3.31560413,17 C3.44788564,17 3.57435659,16.9474727 3.66772396,16.8540724 L4.37199682,16.1493036 C4.47947555,16.0418252 4.53200299,15.8910499 4.51450491,15.7397766 L4.4269481,14.9829785 L5.47557124,14.8842325 C5.71390374,14.8618537 5.90213262,14.6736253 5.92451157,14.4352935 L6.02325786,13.3866735 L6.78005816,13.4746948 C6.92060727,13.4936538 7.06215247,13.4464722 7.1686683,13.3521422 C7.27468608,13.2573142 7.33548112,13.122078 7.33548112,12.9800684 L7.33548112,12.0527392 L8.245979,12.0527392 C8.3782605,12.0527392 8.50473145,12.0002119 8.59809882,11.9068116 L9.87532593,10.6464886 C11.8256813,11.2787751 13.9387655,10.8101467 15.3978797,9.35004067 C17.5340401,7.21391971 17.5340401,3.73825319 15.3978797,1.60209902 Z M13.9889023,5.12395105 C13.4062195,5.70663212 12.4587665,5.70663212 11.8760837,5.12395105 C11.293401,4.54126998 11.293401,3.59381973 11.8760837,3.01113866 C12.4587665,2.42845759 13.4062195,2.42845759 13.9889023,3.01113866 C14.5715851,3.59381973 14.5715519,4.54126998 13.9889023,5.12395105 Z" id="Shape"></path>
                </g>
            </g>
        </g>
    </g>
</svg>