<?xml version="1.0" encoding="UTF-8"?>
<svg width="31px" height="31px" viewBox="0 0 31 31" version="1.1" xmlns="http://www.w3.org/2000/svg" xmlns:xlink="http://www.w3.org/1999/xlink">
    <!-- Generator: Sketch 59.1 (86144) - https://sketch.com -->
    <title>babyroom_icon-dark</title>
    <desc>Created with Sketch.</desc>
    <g id="Page-1" stroke="none" stroke-width="1" fill="none" fill-rule="evenodd">
        <g id="Artboard" transform="translate(-208.000000, -70.000000)">
            <g id="babyroom_icon-dark" transform="translate(208.000000, 70.000000)">
                <rect id="Rectangle" fill="#000000" x="0" y="0" width="31" height="31" rx="2.00990786"></rect>
                <g id="mother-changing-baby-clothes" transform="translate(7.000000, 5.000000)" fill="#FFFFFF" fill-rule="nonzero">
                    <circle id="Oval" cx="10.5" cy="1.5" r="1.5"></circle>
                    <path d="M12.2658532,10.1910889 C12.4853252,9.74888242 12.1202822,9.41826316 12.1202822,9.41826316 L10.8969577,8.2416948 C10.7908822,8.15458072 10.3731156,7.76516686 10.1133626,8.20716195 C9.93190941,8.52708744 9.97680925,8.86476543 10.187295,9.12061284 L11.0075263,9.93887649 C11.0372815,9.96943616 11.044194,10.0278081 11.0230166,10.0692306 L10.5461796,10.9962495 C10.5248136,11.037672 10.4937388,11.1078366 10.4779657,11.1534859 C10.0376393,12.4254951 10.7106657,12.8666449 10.9291008,12.9725259 C10.964386,12.9896866 11.0241791,13 11.0616009,13 C11.310671,13 12.2040805,13 13.0401164,13 C14.0238284,13 13.9999488,12.1692251 13.9999488,12.1692251 L13.9999488,9.61396339 C13.9999488,9.61396339 13.9999488,9.59878922 13.9999488,9.55313993 C13.9999488,9.50744836 13.9717018,8.98281959 13.5759924,8.98281959 C13.2982355,8.98281959 13.2223551,9.34070162 13.2218838,9.47735364 C13.2166365,9.52727199 13.21981,9.60910258 13.21981,9.65961269 L13.21981,10.6729425 C13.21981,10.7234526 13.1894578,10.7642834 13.1519104,10.7642834 L12.0111903,10.7642834 C11.9737999,10.7642834 11.963714,10.7339351 11.9885047,10.6961899 C12.1344214,10.451163 12.197388,10.3291357 12.2658532,10.1910889 Z" id="Path"></path>
                    <circle id="Oval" cx="15" cy="12" r="1"></circle>
                    <path d="M16,13.5000221 C16,13.2239668 15.8162289,13 15.5893135,13 L9.41065024,13 C9.18391596,13 9,13.2237463 9,13.5000221 C9,13.7760332 9.18373483,14 9.41065024,14 L15.5893135,14 C15.8160478,13.9997795 16,13.7760332 16,13.5000221 Z" id="Path"></path>
                    <path d="M0.212477732,13.49176 L3.3391899,13.49176 L3.3391899,19.9991627 C3.3391899,20.5518173 3.75342208,21 4.26460521,21 C4.77578833,21 5.19002051,20.5518173 5.19002051,19.9991627 L5.19002051,13.49176 L7.69990644,13.49176 C7.88497543,13.49176 7.99719924,13.333663 7.94926922,13.1402091 L6.50394344,7.30591781 C6.45601342,7.11246395 6.54532795,6.86774463 6.70231459,6.76182646 L9.03082658,5.19124601 L9.20093943,7.05316804 L12.0522124,9.42241644 C12.1592279,9.51120807 12.2854225,9.55432891 12.4105966,9.55432891 C12.5872901,9.55432891 12.7620834,9.46862006 12.8780022,9.30557533 C13.0762326,9.02660292 13.0277747,8.62683126 12.7698254,8.41248302 L10.3210308,6.37769704 L10.1448652,4.42915275 C10.1361026,4.33598434 10.1080203,4.25027548 10.0671284,4.17423362 C10.0551635,4.14858186 10.041052,4.12346292 10.0218729,4.09998052 L10.0144476,4.09088442 C10.0111045,4.08650764 10.0074095,4.08251145 10.0040311,4.07813466 L7.57575292,1.10820119 C7.45307742,0.958286816 7.25991452,0.964985198 7.14652942,1.12312031 L3.52228819,5.84814422 C3.40890309,6.00627934 3.24399849,6.27977126 3.15598603,6.45594633 L0.0357841835,13.1714555 C-0.0520171317,13.3475926 0.0273735565,13.49176 0.212477732,13.49176 Z" id="Path"></path>
                </g>
            </g>
        </g>
    </g>
</svg>