<?xml version="1.0" encoding="UTF-8"?>
<svg width="17px" height="17px" viewBox="0 0 17 17" version="1.1" xmlns="http://www.w3.org/2000/svg" xmlns:xlink="http://www.w3.org/1999/xlink">
    <!-- Generator: Sketch 60.1 (88133) - https://sketch.com -->
    <title>guests-dark</title>
    <desc>Created with Sketch.</desc>
    <g id="Page-1" stroke="none" stroke-width="1" fill="none" fill-rule="evenodd">
        <g id="icons" transform="translate(-690.000000, -86.000000)">
            <g id="icons_naked" transform="translate(426.000000, 60.000000)">
                <g id="guests-dark" transform="translate(263.000000, 25.000000)">
                    <path d="M14.1827273,18 L15.4654545,18 C16.1145455,18 16.6477273,17.5052296 16.725,16.8713051 L18,4.13096862 L14.1363636,4.13096862 L14.1363636,1 L12.6140909,1 L12.6140909,4.13096862 L8.77363636,4.13096862 L9.00545455,5.93997271 C10.3268182,6.30331969 11.5631818,6.96043656 12.305,7.68713051 C13.4177273,8.78490223 14.1827273,9.92132788 14.1827273,11.7767167 L14.1827273,18 L14.1827273,18 Z M1,17.2269213 L1,16.4615734 L12.6140909,16.4615734 L12.6140909,17.2269213 C12.6140909,17.6521146 12.2663636,18 11.8336364,18 L1.78045455,18 C1.34772727,18 1,17.6521146 1,17.2269213 Z M12.6140909,11.8153706 C12.6140909,5.63074125 1,5.63074125 1,11.8153706 L12.6140909,11.8153706 Z M1.01545455,13.3692588 L12.6063636,13.3692588 L12.6063636,14.9154161 L1.01545455,14.9154161 L1.01545455,13.3692588 Z" id="Shape" fill="#000000" fill-rule="nonzero"></path>
                    <polygon id="Path" points="0 0 18 0 18 18 0 18"></polygon>
                </g>
            </g>
        </g>
    </g>
</svg>