<?xml version="1.0" encoding="UTF-8"?>
<svg width="16px" height="17px" viewBox="0 0 16 17" version="1.1" xmlns="http://www.w3.org/2000/svg" xmlns:xlink="http://www.w3.org/1999/xlink">
    <!-- Generator: Sketch 60.1 (88133) - https://sketch.com -->
    <title>free-dark</title>
    <desc>Created with Sketch.</desc>
    <g id="Page-1" stroke="none" stroke-width="1" fill="none" fill-rule="evenodd">
        <g id="icons" transform="translate(-629.000000, -87.000000)">
            <g id="icons_naked" transform="translate(426.000000, 60.000000)">
                <g id="free-dark" transform="translate(201.000000, 26.000000)">
                    <polygon id="Path" points="0 0 19 0 19 19 0 19"></polygon>
                    <path d="M10.10013,4.9 C11.9518856,4.9 12.6384915,5.75 12.7009103,7 L15,7 C14.9271782,5.28 13.8348505,3.7 11.6605982,3.19 L11.6605982,1 L8.5396619,1 L8.5396619,3.16 C7.98829649,3.28 7.46814044,3.46 7,3.7 L8.52925878,5.17 C8.95578674,5 9.47594278,4.9 10.10013,4.9 Z M3.27959698,2 L2,3.19952774 L5.46599496,6.44864227 C5.46599496,8.41322314 7.03778338,9.48051948 9.40554156,10.1416765 L12.9420655,13.4569067 C12.5994962,13.9102715 11.884131,14.3164109 10.5037783,14.3164109 C8.42821159,14.3164109 7.61209068,13.4474616 7.50125945,12.3329398 L5.28463476,12.3329398 C5.40554156,14.4014168 7.05793451,15.5631641 8.99244332,15.9504132 L8.99244332,18 L12.0151134,18 L12.0151134,15.9693034 C12.9823678,15.7992916 13.8488665,15.4498229 14.4836272,14.9114522 L16.720403,17.0082645 L18,15.8087367 L3.27959698,2 Z" id="Shape" fill="#000000" fill-rule="nonzero"></path>
                </g>
            </g>
        </g>
    </g>
</svg>