<svg xmlns="http://www.w3.org/2000/svg" xmlns:xlink="http://www.w3.org/1999/xlink" width="219" height="381" viewBox="0 0 219 381">
  <defs>
    <clipPath id="clip-l_general_unknown">
      <rect width="219" height="381"/>
    </clipPath>
  </defs>
  <g id="l_general_unknown" clip-path="url(#clip-l_general_unknown)">
    <path id="Path_19" data-name="Path 19" d="M0,0H219V219L0,374.243V0Z" transform="translate(0 6)" fill="#2e2e2e"/>
    <rect id="Rectangle_9" data-name="Rectangle 9" width="219" height="27" fill="#6f6f6f"/>
    <g id="toilet_1_" data-name="toilet (1)" transform="translate(41.191 74)">
      <g id="Group_9" data-name="Group 9" transform="translate(72.148)">
        <g id="Group_8" data-name="Group 8">
          <path id="Path_33" data-name="Path 33" d="M327.7,0H279.958a7.958,7.958,0,0,0,0,15.915H327.7A7.958,7.958,0,0,0,327.7,0Z" transform="translate(-272)" fill="#fff"/>
        </g>
      </g>
      <g id="Group_11" data-name="Group 11" transform="translate(9.757 88.063)">
        <g id="Group_10" data-name="Group 10">
          <path id="Path_34" data-name="Path 34" d="M36.784,332a43.849,43.849,0,0,0,30.031,30.183v13.584a3.976,3.976,0,0,0,3.979,3.979h48.276a3.976,3.976,0,0,0,3.979-3.979V364.475a13.472,13.472,0,0,1,9.216-12.787A21.382,21.382,0,0,0,146.87,332Z" transform="translate(-36.784 -332)" fill="#fff"/>
        </g>
      </g>
      <g id="Group_13" data-name="Group 13" transform="translate(80.106 23.873)">
        <g id="Group_12" data-name="Group 12">
          <path id="Path_35" data-name="Path 35" d="M302,90v56.233h35.809A11.95,11.95,0,0,0,349.745,134.3V90Z" transform="translate(-302 -90)" fill="#fff"/>
        </g>
      </g>
      <g id="Group_15" data-name="Group 15" transform="translate(0 64.191)">
        <g id="Group_14" data-name="Group 14">
          <path id="Path_36" data-name="Path 36" d="M7.958,242a7.958,7.958,0,1,0,0,15.915H72.148V242Z" transform="translate(0 -242)" fill="#fff"/>
        </g>
      </g>
    </g>
  </g>
</svg>
