<svg xmlns="http://www.w3.org/2000/svg" xmlns:xlink="http://www.w3.org/1999/xlink" width="219" height="381" viewBox="0 0 219 381">
  <defs>
    <clipPath id="clip-l_portable_unknown">
      <rect width="219" height="381"/>
    </clipPath>
  </defs>
  <g id="l_portable_unknown" clip-path="url(#clip-l_portable_unknown)">
    <path id="Path_19" data-name="Path 19" d="M0,0H219V219L0,374.243V0Z" transform="translate(0 6)" fill="#2e2e2e"/>
    <rect id="Rectangle_9" data-name="Rectangle 9" width="219" height="27" fill="#6f6f6f"/>
    <g id="portable-toilets" transform="translate(45 56.494)">
      <path id="Path_29" data-name="Path 29" d="M126.981,8.87A224.31,224.31,0,0,0,65,0,224.31,224.31,0,0,0,3.017,8.87L0,9.834V26H130V9.834Zm0,0" fill="#fff"/>
      <path id="Path_30" data-name="Path 30" d="M180,241h26v8.667H180Zm0,0" transform="translate(-128.001 -171.379)" fill="#fff"/>
      <path id="Path_31" data-name="Path 31" d="M30,233.243H47.333V128.955h78V233.243h17.333V120H30Zm0,0" transform="translate(-21.333 -85.334)" fill="#fff"/>
      <path id="Path_32" data-name="Path 32" d="M120,276.621h60.666V233h-4.333A4.336,4.336,0,0,0,172,237.333h-8.667a13.015,13.015,0,0,1,13-13h4.333V181H120Zm8.667-86.954H172v26H128.667Zm0,0" transform="translate(-85.334 -128.712)" fill="#fff"/>
    </g>
  </g>
</svg>
