<svg xmlns="http://www.w3.org/2000/svg" xmlns:xlink="http://www.w3.org/1999/xlink" width="219" height="381" viewBox="0 0 219 381">
  <defs>
    <clipPath id="clip-Restaurant_pin_-_open">
      <rect width="219" height="381"/>
    </clipPath>
  </defs>
  <g id="Restaurant_pin_-_open" data-name="Restaurant pin - open" clip-path="url(#clip-Restaurant_pin_-_open)">
    <path id="Path_19" data-name="Path 19" d="M0,0H219V219L0,374.243V0Z" transform="translate(0 6)"/>
    <rect id="Rectangle_9" data-name="Rectangle 9" width="219" height="27" fill="#4cd137"/>
    <g id="restaurant" transform="translate(49.26 72.952)">
      <g id="Group_2" data-name="Group 2" transform="translate(6.722)">
        <g id="Group_1" data-name="Group 1">
          <path id="Path_20" data-name="Path 20" d="M138.976,102.029,91.848,54.975,36.786,0h-4.3L31.6,2.229a39.359,39.359,0,0,0-2.865,17.4,24.561,24.561,0,0,0,6.9,15.7L78.623,78.246l5.67-5.661,39.738,44.365a10.683,10.683,0,0,0,14.945,0A10.551,10.551,0,0,0,138.976,102.029Z" transform="translate(-28.636)" fill="#fff"/>
        </g>
      </g>
      <g id="Group_4" data-name="Group 4" transform="translate(0.153 69.129)">
        <g id="Group_3" data-name="Group 3" transform="translate(0)">
          <path id="Path_21" data-name="Path 21" d="M36.266,291.442,3.189,324.519A10.383,10.383,0,1,0,17.873,339.2l33.077-33.077Z" transform="translate(-0.153 -291.442)" fill="#fff"/>
        </g>
      </g>
      <g id="Group_6" data-name="Group 6" transform="translate(65.376 0.083)">
        <g id="Group_5" data-name="Group 5">
          <path id="Path_22" data-name="Path 22" d="M324.15,19.94,305.387,38.7l-4.895-4.895,18.763-18.763L314.36,10.15,295.6,28.913,290.7,24.019,309.466,5.256,304.571.361,280.1,24.835a17.276,17.276,0,0,0-5.035,11.194,9.973,9.973,0,0,1-.709,3.125l15.9,15.9a9.96,9.96,0,0,1,3.125-.709,17.272,17.272,0,0,0,11.194-5.034l24.474-24.474Z" transform="translate(-274.354 -0.361)" fill="#fff"/>
        </g>
      </g>
    </g>
  </g>
</svg>
