<svg xmlns="http://www.w3.org/2000/svg" xmlns:xlink="http://www.w3.org/1999/xlink" width="219" height="381" viewBox="0 0 219 381">
  <defs>
    <clipPath id="clip-Shop_pin_-_open">
      <rect width="219" height="381"/>
    </clipPath>
  </defs>
  <g id="Shop_pin_-_open" data-name="Shop pin - open" clip-path="url(#clip-Shop_pin_-_open)">
    <path id="Path_19" data-name="Path 19" d="M0,0H219V219L0,374.243V0Z" transform="translate(0 6)"/>
    <rect id="Rectangle_9" data-name="Rectangle 9" width="219" height="27" fill="#4cd137"/>
    <g id="shopping-cart" transform="translate(50 73)">
      <g id="shopping-cart-2" data-name="shopping-cart">
        <path id="Path_28" data-name="Path 28" d="M36,96a12,12,0,1,0,12,12A12.035,12.035,0,0,0,36,96ZM0,0V12H12L33.6,57.6,25.2,72A21.318,21.318,0,0,0,24,78,12.035,12.035,0,0,0,36,90h72V78H38.4a1.29,1.29,0,0,1-1.2-1.2v-.6L42.6,66H87a10.942,10.942,0,0,0,10.2-6l21.6-39a3.3,3.3,0,0,0,1.2-3,5.669,5.669,0,0,0-6-6H25.2L19.8,0ZM96,96a12,12,0,1,0,12,12A12.035,12.035,0,0,0,96,96Z" fill="#fff"/>
      </g>
    </g>
  </g>
</svg>
