<?xml version="1.0" encoding="UTF-8"?>
<svg width="34px" height="34px" viewBox="0 0 34 34" version="1.1" xmlns="http://www.w3.org/2000/svg" xmlns:xlink="http://www.w3.org/1999/xlink">
    <!-- Generator: Sketch 59.1 (86144) - https://sketch.com -->
    <title>icon</title>
    <desc>Created with Sketch.</desc>
    <g id="Page-1" stroke="none" stroke-width="1" fill="none" fill-rule="evenodd">
        <g id="Default_iconOverflow" transform="translate(-25.000000, -621.000000)">
            <g id="Bottom-sheet" transform="translate(0.000000, 555.000000)">
                <g id="Ajanlott-mosdo">
                    <g id="icon" transform="translate(25.000000, 66.000000)">
                        <rect id="Rectangle" fill="#FFFFFF" x="0" y="0" width="34" height="34" rx="2"></rect>
                        <g id="restaurant-(1)" transform="translate(6.000000, 6.000000)" fill="#000000" fill-rule="nonzero">
                            <path d="M21.4278376,18.7053884 L12.7027467,10.0787362 L2.50895127,0 L1.71230025,0 L1.54963237,0.408675221 C1.12029871,1.48736124 0.936857328,2.59062535 1.01921256,3.59905756 C1.11308448,4.74855599 1.55476056,5.74375384 2.29656604,6.47718643 L10.2543844,14.3451835 L11.3040116,13.3074036 L18.6610062,21.4410761 C19.3928595,22.1646688 20.6525251,22.2076375 21.4278376,21.4410761 C22.1907208,20.6868037 22.1907208,19.4596178 21.4278376,18.7053884 Z" id="Path"></path>
                            <path d="M6.39833183,13 L0.537937986,18.8631005 C-0.179312662,19.5806824 -0.179312662,20.7483474 0.537937986,21.4659293 C1.21930976,22.1476158 2.39804124,22.2077959 3.13956529,21.4659293 L9,15.602788 L6.39833183,13 Z" id="Path"></path>
                            <path d="M21.1049755,3.57992932 L17.6742099,7.01065274 L16.7791854,6.11567041 L20.209951,2.68490482 L19.3149687,1.78992249 L15.8842452,5.22064591 L14.9892629,4.32566358 L18.4200285,0.894940157 L17.5250884,0 L13.0501767,4.47491165 C12.502737,5.02235136 12.1758588,5.74923457 12.1296379,6.5217483 C12.1179562,6.71747033 12.0735908,6.90998726 12,7.09309975 L14.9069002,10 C15.0900127,9.92632485 15.2825718,9.88200167 15.4782517,9.87031992 C16.2507654,9.8242255 16.9776486,9.49726301 17.5250884,8.9498233 L22,4.47495382 L21.1049755,3.57992932 Z" id="Path"></path>
                        </g>
                    </g>
                </g>
            </g>
        </g>
    </g>
</svg>