<?xml version="1.0" encoding="UTF-8"?>
<svg width="31px" height="31px" viewBox="0 0 31 31" version="1.1" xmlns="http://www.w3.org/2000/svg" xmlns:xlink="http://www.w3.org/1999/xlink">
    <!-- Generator: Sketch 59.1 (86144) - https://sketch.com -->
    <title>temporary-toilet</title>
    <desc>Created with Sketch.</desc>
    <g id="Page-1" stroke="none" stroke-width="1" fill="none" fill-rule="evenodd">
        <g id="icons" transform="translate(-241.000000, -86.000000)">
            <g id="temporary-toilet" transform="translate(241.000000, 86.000000)">
                <rect id="Rectangle" fill="#FFFFFF" x="0" y="0" width="31" height="31" rx="2.00990786"></rect>
                <g id="portable-toilets" transform="translate(7.000000, 6.000000)" fill="#000000" fill-rule="nonzero">
                    <path d="M16.4100418,1.14625 C16.2634792,1.09972916 12.7672709,0 8.40000004,0 C4.03272917,0 0.536520845,1.09972916 0.389958316,1.14625 L0,1.27093751 L0,3.36000001 L16.8000001,3.36000001 L16.8000001,1.27093751 L16.4100418,1.14625 Z" id="Path"></path>
                    <polygon id="Path" points="6.72000003 8.96000004 10.08 8.96000004 10.08 10.08 6.72000003 10.08"></polygon>
                    <polygon id="Path" points="1.12 19.0400001 3.36000001 19.0400001 3.36000001 5.6314286 13.4400001 5.6314286 13.4400001 19.0400001 15.6800001 19.0400001 15.6800001 4.48000002 1.12 4.48000002"></polygon>
                    <path d="M4.48000002,19.0400001 L12.3200001,19.0400001 L12.3200001,13.4196979 L11.7600001,13.4196979 C11.4509792,13.4196979 11.2,13.6699189 11.2,13.9780061 L10.08,13.9780061 C10.08,13.0544714 10.8336667,12.3030816 11.7600001,12.3030816 L12.3200001,12.3030816 L12.3200001,6.72000003 L4.48000002,6.72000003 L4.48000002,19.0400001 Z M5.60000002,7.83661635 L11.2,7.83661635 L11.2,11.1864653 L5.60000002,11.1864653 L5.60000002,7.83661635 Z" id="Shape"></path>
                </g>
            </g>
        </g>
    </g>
</svg>