<?xml version="1.0" encoding="UTF-8"?>
<svg width="18px" height="18px" viewBox="0 0 18 18" version="1.1" xmlns="http://www.w3.org/2000/svg" xmlns:xlink="http://www.w3.org/1999/xlink">
    <!-- Generator: Sketch 60.1 (88133) - https://sketch.com -->
    <title>shop-light</title>
    <desc>Created with Sketch.</desc>
    <g id="Page-1" stroke="none" stroke-width="1" fill="none" fill-rule="evenodd">
        <g id="icons" transform="translate(-575.000000, -61.000000)" fill="#FFFFFF" fill-rule="nonzero">
            <g transform="translate(426.000000, 60.000000)" id="shop-light">
                <g transform="translate(149.000000, 1.000000)">
                    <path d="M5.32442676,14.1984714 C4.34828185,14.1984714 3.54961784,14.9971354 3.54961784,15.9732803 C3.54961784,16.9494252 4.34828185,17.7480892 5.32442676,17.7480892 C6.30057166,17.7480892 7.09923568,16.9494252 7.09923568,15.9732803 C7.09923568,14.9971354 6.30057166,14.1984714 5.32442676,14.1984714 Z M0,0 L0,1.77480892 L1.77480892,1.77480892 L4.96946497,8.51908281 L3.72709873,10.6488535 C3.63835828,10.9150749 3.54961784,11.2700366 3.54961784,11.536258 C3.54961784,12.5124029 4.34828185,13.3110669 5.32442676,13.3110669 L15.9732803,13.3110669 L15.9732803,11.536258 L5.67938854,11.536258 C5.5906481,11.536258 5.50190765,11.4475175 5.50190765,11.3587771 L5.50190765,11.2700018 L6.30057166,9.76141426 L12.8673647,9.76141426 C13.5772882,9.76141426 14.1097309,9.40645247 14.3759522,8.8740098 L17.5706083,3.10591561 C17.7480892,2.92843472 17.7480892,2.83969427 17.7480892,2.66221338 C17.7480892,2.1297707 17.3931274,1.77480892 16.8606847,1.77480892 L3.72709873,1.77480892 L2.92843472,0 L0,0 Z M14.1984714,14.1984714 C13.2223264,14.1984714 12.4236624,14.9971354 12.4236624,15.9732803 C12.4236624,16.9494252 13.2223264,17.7480892 14.1984714,17.7480892 C15.1746163,17.7480892 15.9732803,16.9494252 15.9732803,15.9732803 C15.9732803,14.9971354 15.1746163,14.1984714 14.1984714,14.1984714 Z" id="Shape"></path>
                </g>
            </g>
        </g>
    </g>
</svg>