<?xml version="1.0" encoding="UTF-8"?>
<svg width="31px" height="31px" viewBox="0 0 31 31" version="1.1" xmlns="http://www.w3.org/2000/svg" xmlns:xlink="http://www.w3.org/1999/xlink">
    <!-- Generator: Sketch 59.1 (86144) - https://sketch.com -->
    <title>gas_station</title>
    <desc>Created with Sketch.</desc>
    <g id="Page-1" stroke="none" stroke-width="1" fill="none" fill-rule="evenodd">
        <g id="icons" transform="translate(-315.000000, -86.000000)">
            <g id="gas_station" transform="translate(315.000000, 86.000000)">
                <rect id="Rectangle" fill="#FFFFFF" x="0" y="0" width="31" height="31" rx="2.00990786"></rect>
                <g id="gas-station" transform="translate(7.000000, 6.000000)" fill="#000000" fill-rule="nonzero">
                    <path d="M16.1084382,4.32077527 L16.1237601,4.30545337 L12.3188061,0.510745898 L11.2360746,1.5934774 L13.391339,3.74874178 C12.4311826,4.11646734 11.7467726,5.04090448 11.7467726,6.12875925 C11.7467726,7.53837388 12.8907917,8.68239298 14.3004063,8.68239298 C14.6630086,8.68239298 15.0103369,8.60578349 15.3218502,8.4678864 L15.3218502,15.8325961 C15.3218981,16.394431 14.8622412,16.8540879 14.3004542,16.8540879 C13.7386672,16.8540879 13.2790103,16.394431 13.2790103,15.832644 L13.2790103,11.2360746 C13.2790103,10.1073774 12.3648197,9.19313887 11.2360746,9.19313887 L10.2146307,9.19313887 L10.2146307,2.04293571 C10.2145828,0.914190628 9.30039216,0 8.17169496,0 L2.04293571,0 C0.914190628,0 0,0.914190628 0,2.04293571 L0,18.3862777 L10.2145828,18.3862777 L10.2145828,10.7253287 L11.7467726,10.7253287 L11.7467726,15.832644 C11.7467726,17.2422586 12.8907917,18.3862777 14.3004063,18.3862777 C15.710021,18.3862777 16.8540401,17.2422586 16.8540401,15.832644 L16.8540401,6.12875925 C16.8540401,5.42395194 16.5680951,4.78555547 16.1084382,4.32077527 Z M8.17169496,7.15020316 L2.04293571,7.15020316 L2.04293571,2.04293571 L8.17169496,2.04293571 L8.17169496,7.15020316 Z M14.3004542,7.15020316 C13.7386672,7.15020316 13.2790103,6.69054622 13.2790103,6.12875925 C13.2790103,5.56697228 13.7386672,5.10731533 14.3004542,5.10731533 C14.8622412,5.10731533 15.3218981,5.56697228 15.3218981,6.12875925 C15.3218981,6.69054622 14.8622412,7.15020316 14.3004542,7.15020316 Z" id="Shape"></path>
                </g>
            </g>
        </g>
    </g>
</svg>