<?xml version="1.0" encoding="UTF-8"?>
<svg width="34px" height="34px" viewBox="0 0 34 34" version="1.1" xmlns="http://www.w3.org/2000/svg" xmlns:xlink="http://www.w3.org/1999/xlink">
    <!-- Generator: Sketch 59.1 (86144) - https://sketch.com -->
    <title>disabled_icon</title>
    <desc>Created with Sketch.</desc>
    <g id="Page-1" stroke="none" stroke-width="1" fill="none" fill-rule="evenodd">
        <g id="Default_iconOverflow" transform="translate(-68.000000, -621.000000)">
            <g id="Bottom-sheet" transform="translate(0.000000, 555.000000)">
                <g id="Ajanlott-mosdo">
                    <g id="disabled_icon" transform="translate(68.000000, 66.000000)">
                        <rect id="Rectangle" fill="#FFFFFF" x="0" y="0" width="34" height="34" rx="2.00990786"></rect>
                        <g id="disabled" transform="translate(8.000000, 6.000000)" fill="#000000" fill-rule="nonzero">
                            <path d="M8.83505626,4.41738008 C10.0535245,4.41738008 11.0434502,3.42851163 11.0434502,2.20871282 C11.0434502,0.988549554 10.0535245,0 8.83505626,0 C7.61517587,0 6.62607012,0.988549554 6.62607012,2.20871282 C6.62607012,3.42851163 7.61517587,4.41738008 8.83505626,4.41738008 Z" id="XMLID_31_"></path>
                            <path d="M11.7214817,17.7580915 C11.1242657,19.7785579 9.21259982,21.2623803 6.94922408,21.2623803 C4.20832591,21.2623803 1.97934699,19.0904647 1.97934699,16.4206595 C1.97934699,14.4443676 3.20298378,12.7433763 4.94924827,11.9917314 L4.94924827,9.93910518 C2.08949099,10.7783765 0,13.3649818 0,16.4206595 C0,20.1537706 3.11736258,23.1912454 6.94917773,23.1912454 C9.74162478,23.1912454 12.1485215,21.5741767 13.2521402,19.2539738 L12.4675033,17.7519035 C12.2472617,17.753665 11.9921133,17.7559234 11.7214817,17.7580915 Z" id="XMLID_30_"></path>
                            <path d="M18.6294718,20.1465835 L15.6183159,14.1608845 C15.3935654,13.7130073 14.939242,13.4310974 14.4422592,13.4310974 L10.585611,13.4310974 L10.585611,12.5419066 L13.9047962,12.5419066 C14.2362417,12.5419066 14.5148266,12.3667501 14.6947847,12.1144236 C14.8117273,11.9500504 14.8949133,11.7590942 14.8949133,11.5407582 C14.8949133,10.9880496 14.4521358,10.5397505 13.9047962,10.5397505 L11.9051334,10.5397505 L10.585611,10.5397505 L10.585611,7.52383433 C10.585611,6.694373 9.97734261,5.5217251 8.60616516,5.5217251 C7.51259887,5.5217251 6.62607012,6.41822971 6.62607012,7.52383433 L6.62607012,14.0580692 C6.62607012,15.1859903 7.53040456,16.1003575 8.64599613,16.1003575 L12.2750652,16.1003575 L13.6329348,16.1003575 L16.2770801,21.356785 C16.5094352,21.8197587 16.9731251,22.0869004 17.4543425,22.0869004 C17.6560476,22.0869004 17.8605812,22.0402983 18.0517142,21.9413743 C18.7024566,21.6076582 18.9609174,20.8036077 18.6294718,20.1465835 Z" id="XMLID_29_"></path>
                        </g>
                    </g>
                </g>
            </g>
        </g>
    </g>
</svg>