<?xml version="1.0" encoding="UTF-8"?>
<svg width="34px" height="34px" viewBox="0 0 34 34" version="1.1" xmlns="http://www.w3.org/2000/svg" xmlns:xlink="http://www.w3.org/1999/xlink">
    <!-- Generator: Sketch 59.1 (86144) - https://sketch.com -->
    <title>babyroom_icon</title>
    <desc>Created with Sketch.</desc>
    <g id="Page-1" stroke="none" stroke-width="1" fill="none" fill-rule="evenodd">
        <g id="Default_iconOverflow" transform="translate(-111.000000, -621.000000)">
            <g id="Bottom-sheet" transform="translate(0.000000, 555.000000)">
                <g id="Ajanlott-mosdo">
                    <g id="babyroom_icon" transform="translate(111.000000, 66.000000)">
                        <rect id="Rectangle" fill="#FFFFFF" x="0" y="0" width="34" height="34" rx="2.00990786"></rect>
                        <g id="mother-changing-baby-clothes" transform="translate(7.000000, 5.000000)" fill="#000000" fill-rule="nonzero">
                            <circle id="Oval" cx="13" cy="2" r="2"></circle>
                            <path d="M14.8323165,12.6293066 C15.1066564,12.0986589 14.6503527,11.7019158 14.6503527,11.7019158 L13.1211971,10.2900338 C12.9886027,10.1854969 12.4663945,9.71820023 12.1417033,10.2485943 C11.9148868,10.6325049 11.9710116,11.0377185 12.2341187,11.3447354 L13.2594079,12.3266518 C13.2966018,12.3633234 13.3052425,12.4333697 13.2787707,12.4830767 L12.6827244,13.5954994 C12.656017,13.6452064 12.6171735,13.729404 12.5974571,13.7841831 C12.0470491,15.3105942 12.8883321,15.8399739 13.161376,15.9670311 C13.2054825,15.987624 13.2802239,16 13.3270011,16 C13.6383387,16 14.7551007,16 15.8001454,16 C17.0297855,16 16.999936,15.0030701 16.999936,15.0030701 L16.999936,11.9367561 C16.999936,11.9367561 16.999936,11.9185471 16.999936,11.8637679 C16.999936,11.808938 16.9646273,11.1793835 16.4699905,11.1793835 C16.1227944,11.1793835 16.0279438,11.6088419 16.0273547,11.7728244 C16.0207957,11.8327264 16.0247625,11.9309231 16.0247625,11.9915352 L16.0247625,13.2075311 C16.0247625,13.2681432 15.9868223,13.3171401 15.939888,13.3171401 L14.5139879,13.3171401 C14.4672499,13.3171401 14.4546425,13.2807221 14.4856309,13.2354278 C14.6680267,12.9413957 14.746735,12.7949629 14.8323165,12.6293066 Z" id="Path"></path>
                            <circle id="Oval" cx="19" cy="14" r="1"></circle>
                            <path d="M20,16.5000221 C20,16.2239668 19.7637229,16 19.4719745,16 L11.5279789,16 C11.2364634,16 11,16.2237463 11,16.5000221 C11,16.7760332 11.2362305,17 11.5279789,17 L19.4719745,17 C19.7634901,16.9997795 20,16.7760332 20,16.5000221 Z" id="Path"></path>
                            <path d="M0.261511055,15.990112 L4.10977218,15.990112 L4.10977218,23.7989952 C4.10977218,24.4621808 4.6195964,25 5.24874487,25 C5.87789333,25 6.38771755,24.4621808 6.38771755,23.7989952 L6.38771755,15.990112 L9.47680793,15.990112 C9.70458514,15.990112 9.84270675,15.8003956 9.78371596,15.5682509 L8.00485346,8.56710137 C7.94586267,8.33495674 8.05578824,8.04129356 8.24900257,7.91419175 L11.1148635,6.02949522 L11.3242331,8.26380165 L14.8334921,11.1068997 C14.9652036,11.2134497 15.12052,11.2651947 15.2745804,11.2651947 C15.4920494,11.2651947 15.7071795,11.1623441 15.8498489,10.9666904 C16.0938247,10.6319235 16.0341843,10.1521975 15.7167081,9.89497962 L12.7028072,7.45323645 L12.4859879,5.1149833 C12.4752032,5.0031812 12.4406403,4.90033058 12.3903119,4.80908034 C12.3755859,4.77829823 12.3582178,4.74815551 12.3346128,4.71997663 L12.325474,4.70906131 C12.3213594,4.70380917 12.3168117,4.69901374 12.3126537,4.69376159 L9.3240036,1.12984142 C9.17301836,0.949944179 8.93527941,0.957982238 8.79572851,1.14774437 L4.33512393,6.81777307 C4.19557303,7.0075352 3.99261353,7.33572551 3.8842905,7.5471356 L0.044042072,15.6057467 C-0.0640210852,15.8171111 0.0336905311,15.990112 0.261511055,15.990112 Z" id="Path"></path>
                        </g>
                    </g>
                </g>
            </g>
        </g>
    </g>
</svg>