<?xml version="1.0" encoding="UTF-8"?>
<svg width="34px" height="34px" viewBox="0 0 34 34" version="1.1" xmlns="http://www.w3.org/2000/svg" xmlns:xlink="http://www.w3.org/1999/xlink">
    <!-- Generator: Sketch 59.1 (86144) - https://sketch.com -->
    <title>key_icon</title>
    <desc>Created with Sketch.</desc>
    <g id="Page-1" stroke="none" stroke-width="1" fill="none" fill-rule="evenodd">
        <g id="Default_iconOverflow" transform="translate(-153.000000, -621.000000)">
            <g id="Bottom-sheet" transform="translate(0.000000, 555.000000)">
                <g id="Ajanlott-mosdo">
                    <g id="key_icon" transform="translate(153.000000, 66.000000)">
                        <rect id="Rectangle" fill="#FFFFFF" x="0" y="0" width="34" height="34" rx="2.00990786"></rect>
                        <g id="key" transform="translate(7.000000, 7.000000)" fill="#000000" fill-rule="nonzero">
                            <path d="M18.1151526,1.88482238 C15.6020227,-0.628300168 11.5130694,-0.628261105 8.99993945,1.88486144 C7.28333454,3.60146133 6.68708337,6.13118542 7.43036607,8.42630037 L0.171680023,15.6850042 C0.0617969957,15.7948869 0,15.9436368 0,16.0993007 L0,19.4140631 C0,19.7379299 0.262070824,20 0.585938644,20 L3.90071074,20 C4.05633605,20 4.2051254,19.9382032 4.31496937,19.8283205 L5.14352567,18.9991807 C5.26997123,18.8727355 5.33176823,18.6953528 5.31118225,18.5173843 L5.20817423,17.6270336 L6.44184852,17.5108618 C6.72223969,17.4845337 6.94368544,17.2630886 6.97001361,16.9826983 L7.08618572,15.7490276 L7.97653902,15.8525822 C8.1418909,15.8748868 8.30841466,15.8193791 8.43372741,15.7084026 C8.55845422,15.5968402 8.62997779,15.4377388 8.62997779,15.2706687 L8.62997779,14.1796932 L9.70115176,14.1796932 C9.85677706,14.1796932 10.0055664,14.1178964 10.1154104,14.0080137 L11.6180305,12.5252807 C13.9125662,13.2691472 16.3985477,12.7178196 18.1151526,11.0000479 C20.6282825,8.48696437 20.6282825,4.39794492 18.1151526,1.88482238 Z M16.4575321,6.02817771 C15.772023,6.71368485 14.6573724,6.71368485 13.9718632,6.02817771 C13.2863541,5.34267056 13.2863541,4.22802321 13.9718632,3.54251607 C14.6573724,2.85700893 15.772023,2.85700893 16.4575321,3.54251607 C17.1430413,4.22802321 17.1430022,5.34267056 16.4575321,6.02817771 Z" id="Shape"></path>
                        </g>
                    </g>
                </g>
            </g>
        </g>
    </g>
</svg>