<?xml version="1.0" encoding="UTF-8"?>
<svg width="17px" height="17px" viewBox="0 0 17 17" version="1.1" xmlns="http://www.w3.org/2000/svg" xmlns:xlink="http://www.w3.org/1999/xlink">
    <!-- Generator: Sketch 60.1 (88133) - https://sketch.com -->
    <title>services-dark</title>
    <desc>Created with Sketch.</desc>
    <g id="Page-1" stroke="none" stroke-width="1" fill="none" fill-rule="evenodd">
        <g id="icons" transform="translate(-737.000000, -87.000000)">
            <g id="icons_naked" transform="translate(426.000000, 60.000000)">
                <g id="services-dark" transform="translate(309.000000, 25.000000)">
                    <polygon id="Path" points="0 0 19.4300005 0 19.4300005 19.4300005 0 19.4300005"></polygon>
                    <path d="M10.0500003,2.01000005 C5.61192014,2.01000005 2.01000005,5.61192014 2.01000005,10.0500003 C2.01000005,14.4880804 5.61192014,18.0900005 10.0500003,18.0900005 C14.4880804,18.0900005 18.0900005,14.4880804 18.0900005,10.0500003 C18.0900005,5.61192014 14.4880804,2.01000005 10.0500003,2.01000005 Z M14.0700004,10.8540003 L10.8540003,10.8540003 L10.8540003,14.0700004 L9.24600023,14.0700004 L9.24600023,10.8540003 L6.03000015,10.8540003 L6.03000015,9.24600023 L9.24600023,9.24600023 L9.24600023,6.03000015 L10.8540003,6.03000015 L10.8540003,9.24600023 L14.0700004,9.24600023 L14.0700004,10.8540003 Z" id="Shape" fill="#000000" fill-rule="nonzero"></path>
                </g>
            </g>
        </g>
    </g>
</svg>