<?xml version="1.0" encoding="UTF-8"?>
<svg width="17px" height="17px" viewBox="0 0 17 17" version="1.1" xmlns="http://www.w3.org/2000/svg" xmlns:xlink="http://www.w3.org/1999/xlink">
    <!-- Generator: Sketch 60.1 (88133) - https://sketch.com -->
    <title>tag-light</title>
    <desc>Created with Sketch.</desc>
    <g id="Page-1" stroke="none" stroke-width="1" fill="none" fill-rule="evenodd">
        <g id="icons" transform="translate(-667.000000, -63.000000)" fill="#FFFFFF" fill-rule="nonzero">
            <g id="icons_naked" transform="translate(426.000000, 60.000000)">
                <g id="tag-light" transform="translate(241.000000, 3.000000)">
                    <path d="M16.5850811,9.0329793 L8.56190179,1.02111461 C8.27754659,0.736644133 7.89611365,0.495484852 7.41736718,0.297322353 C6.93846349,0.0991205519 6.50086697,0 6.10434179,0 L1.43631803,0 C1.04726037,0 0.710632543,0.142235241 0.426355944,0.426352001 C0.142079345,0.710625971 0,1.04725068 0,1.43630475 L0,6.10428534 C0,6.50076755 0.0990035604,6.93824212 0.2972858,7.41714138 C0.49556804,7.89604063 0.736768854,8.27361841 1.02112406,8.55050353 L9.04418551,16.5848099 C9.32099459,16.8616164 9.6573866,17 10.0541476,17 C10.4428515,17 10.7835275,16.8616164 11.0752323,16.5848099 L16.5849239,11.0640074 C16.861733,10.7870829 17,10.4507333 17,10.0542118 C17,9.66519707 16.861733,9.32479933 16.5850811,9.0329793 Z M4.60627919,4.60627589 C4.32557914,4.88681614 3.98718269,5.02716487 3.59065751,5.02716487 C3.19428955,5.02716487 2.85573589,4.88681614 2.57519305,4.60627589 C2.29465021,4.32569635 2.15441809,3.98730303 2.15441809,3.59082082 C2.15441809,3.19429931 2.29465021,2.85578808 2.57519305,2.57536574 C2.85577519,2.2947862 3.19428955,2.15443747 3.59065751,2.15443747 C3.98718269,2.15443747 4.32569705,2.2947862 4.60627919,2.57536574 C4.88670412,2.85578808 5.02705415,3.19433861 5.02705415,3.59082082 C5.02705415,3.98730303 4.88686133,4.32569635 4.60627919,4.60627589 Z" id="Shape"></path>
                </g>
            </g>
        </g>
    </g>
</svg>